<?xml version="1.0" encoding="utf-8"?>
<!-- Generator: Adobe Illustrator 14.0.0, SVG Export Plug-In . SVG Version: 6.00 Build 43363)  -->
<!DOCTYPE svg PUBLIC "-//W3C//DTD SVG 1.1//EN" "http://www.w3.org/Graphics/SVG/1.1/DTD/svg11.dtd">
<svg version="1.1" id="Layer_1" xmlns="http://www.w3.org/2000/svg" xmlns:xlink="http://www.w3.org/1999/xlink" x="0px" y="0px"
	 width="192.3px" height="201.26px" viewBox="0 0 192.3 201.26" enable-background="new 0 0 192.3 201.26" xml:space="preserve">
<g>
	<path d="M188.144,148.24c-1.583,0.819-3.885,2.322-6.881,2.055c-0.874-0.077-3.369-1.059-3.683-3.742
		c-0.353-3.011,0.892-7.647,1.781-11.521c0.737-3.214,1.583-7.152,2.383-10.983c0.001-0.007,0.003-0.014,0.004-0.02l4.878-0.095
		c2.853-0.269,5.461-0.254,5.612-3.653c0.209-4.604-5.792-4.635-5.792-4.635l-2.984,0.042c0.536-2.639,0.954-4.746,1.172-5.831
		c0.01-0.052,0.022-0.1,0.034-0.149c2.419-9.168,2.975-16.21-5.308-12.159c-6.327,3.096-6.355,5.88-6.355,5.88l-1.481,12.298
		l-0.062,0.498l-0.005,0.043l-4.659,0.171c0,0-2.316-0.154-2.316,3.832c0,4.247,2.347,4.128,2.347,4.128l3.657-0.063l-2.707,22.459
		c0,0-0.055,0.356-0.063,0.934c0,0.012,0.001,0.025,0,0.037c-1.081,0.696-4.889,3.009-7.062,2.534
		c-1.9-0.417-3.158-1.155-3.682-3.742c-0.602-2.974,0.891-7.648,1.78-11.523c1.311-5.706,2.958-13.697,4.096-19.306
		c0.548-2.714,0.979-4.875,1.192-5.939c2.437-9.208,3.016-16.3-5.288-12.236c-6.326,3.096-6.354,5.88-6.354,5.88l-1.482,12.297
		l-3.742,31.066c0,0-0.074,0.461-0.067,1.187c-2.572,1.361-8.871,3.468-8.088-5.613c0.404-4.688,2.78-18.794,2.78-18.794
		s1.066-3.367-4.172-3.452c-0.346-0.062-0.705-0.118-1.101-0.148c-4.833-0.39-5.382,0.9-5.463,3.514
		c-0.084,2.613-2.06,17.767-2.06,17.767s0.008,9.034-9.682,8.729c-8.885-0.275-2.804-20.729-2.796-21.361l1.302-5.251
		c0,0,0.62-3.547-4.989-3.484c-5.608,0.062-5.401,1.612-5.69,2.674c-0.107,0.4-0.459,2.747-0.851,5.513c0,0.002,0,0.003-0.001,0.005
		c-1.899,0.947-4.503,1.915-6.925,2.562c-0.022,0.008-0.049,0.013-0.072,0.021c-0.014-2.623-0.367-5.128-1.158-6.523
		c-2.922-5.146-8.146-5.459-16.825,0.374c0,0-3.096-5.764-7.651-0.51c-4.56,5.253-8.021,22.342-4.197,28.002
		c3.824,5.659,11.633,7.5,20.566,0.38c4.426-3.529,7.215-9.615,8.509-15.116c0.016-0.004,0.031-0.006,0.047-0.01
		c2.616-0.651,5.087-1.701,6.79-2.564c-0.291,2.125-0.497,3.67-0.497,3.67s-2.396,16.208,9.133,18.353
		c11.529,2.145,15.201-5.941,15.201-5.941s3.816,11.663,20.02,3.058v0.001c1.385,1.535,3.645,2.805,7.325,3.126
		c7.497,0.654,11.145-2.104,12.688-3.882c1.297,1.861,3.654,3.51,7.921,3.882c7.087,0.619,12.619-2.526,14.303-4.299
		c0.827-0.868,0.982-2.178,0.416-3.234C191.163,148.071,189.499,147.541,188.144,148.24L188.144,148.24z M89.39,139.601
		c-1.582,9.146-7.91,12.315-9.923,9.135c-1.507-2.379-1.493-7.229,0.096-12.255c2.134,0.758,4.746,1.355,7.954,1.619
		c0.719,0.062,1.414,0.085,2.1,0.104C89.543,138.659,89.453,139.237,89.39,139.601L89.39,139.601z M90.389,132.281
		c-0.554,0.057-1.101,0.104-1.631,0.142c-2.819,0.189-5.165-0.289-7.031-0.979c-0.021-0.009-0.041-0.019-0.062-0.025
		c3.559-6.175,6.43-5.277,6.43-5.277C90.06,127.012,90.61,128.877,90.389,132.281L90.389,132.281z"/>
	<g>
		<path d="M190.993,67.063c-1.017,0.317-2.938,1.382-5.838,4.81c-5.995,7.087-13.662,6.058-13.662,6.058s-7.41-0.507-3.92-3.206
			c6.833-5.286,13.067-14.019,13.067-14.019s9.357-14.258-6.326-14.258c-14.555,0-15.274,23.641-15.605,27.193
			c-0.018,0.181-0.095,0.338-0.229,0.458c-1.425,1.252-8.253,5.597-12.827,4.899c-5.296-0.805,1.127-8.196,1.527-8.65
			c0.012-0.017,0.02-0.026,0.032-0.042c0.396-0.562,8.802-12.584,4.855-18.037c-1.451-2.007-7.644-3.928-10.1-4.623
			c-0.463-0.133-0.671-0.662-0.423-1.077c0.75-1.257,1.184-2.721,1.184-4.294c-0.008-11.411-18.75-11.401-18.743,0.012
			c0.002,3.431,1.562,7.054,4.434,8.239c0.328,0.137,0.533,0.468,0.444,0.811c-0.229,0.882-0.516,1.806-0.875,2.649
			c-3.608,8.433-14.337,25.457-20.176,23.232c-2.234-0.852-2.079-3.328-1.722-4.517c0.355-1.188,6.36-15.48,7.842-20.851
			c0.372-1.355,0.771-4.396-2.082-5.229c-2.392-0.697-7.499,1.494-9.47,3.979c-0.723,0.911-1.013,2.146-1.815,1.309
			c-2.2-2.291-9.109-2.317-12.119-0.713C82.78,54.219,73.889,57,75.737,73.532c0.018,0.145,0.04,0.271,0.059,0.408
			c-1.391,0.864-4.825,2.815-6.826,2.379c-1.899-0.416-3.16-1.156-3.682-3.743c-0.602-2.973,0.667-6.503,1.556-10.379
			c1.943-8.466,4.633-21.978,5.287-25.243c2.435-9.208,2.896-16.122-5.405-12.059c-6.328,3.097-6.236,5.703-6.236,5.703
			L56.101,66.99c-0.512,0.18-0.993,0.372-1.402,0.612C14.817,91.06-4.604,34.871,23.666,16.567
			c20.341-13.171,36.932,2.509,16.361,17.708c0,0-3.554,2.529-4.463,3.434c-0.908,0.902-0.66,2.079,0.992,2.259
			c1.651,0.182,6.444-0.723,8.924-1.987c2.479-1.266,10.165-5.33,12.229-11.926c2.065-6.595,2.728-16.444-3.883-21.232
			c-6.61-4.787-23.434-10.668-41.235,7.951c-31.366,32.806,1.452,87.995,42.548,65.915c0.197-0.105,0.415-0.203,0.632-0.3
			c0.203,0.558,0.47,1.124,0.832,1.678c1.269,1.932,3.644,3.668,8.044,4.054c7.911,0.691,11.532-2.419,12.924-4.165
			c4.122,7.315,13.27,2.208,15.713,0.05c0.238-0.21,1.457-1.43,1.894-0.524c1.616,3.349,18.479,8.275,26.475-1.187
			c4.736-5.604,7.905-11.886,8.911-13.66c0.576-1.021,4.682-7.732,7.604-12.501c0.134-0.22,0.372-0.358,0.628-0.342
			c2.188,0.157,5.672,2.022,4.959,4.756c-0.38,1.457-2.503,6.396-2.608,6.642c-0.006,0.013-0.004,0.008-0.008,0.02
			c-0.169,0.316-5.044,9.53-5.642,10.861c-1.246,2.792,0.714,8.674,9.09,9.562c7.316,0.778,14.749-3.089,16.092-4.052l0.12,0.136
			c0,0.118,5.943,5.699,15.688,3.798c9.739-1.9,13.425-10.571,14.612-12.829c0.65-1.238,0.819-2.242,0.841-2.899
			C191.95,67.283,191.472,66.911,190.993,67.063L190.993,67.063z M98.965,66.894c-7.548,15.661-17.35,13.695-9.803-2.494
			C95.101,51.658,106.59,51.071,98.965,66.894z M167.073,59.072c4.649-6.903,11.842-7.456,5.462,3.188
			C167.008,71.485,160.324,69.094,167.073,59.072z"/>
		<path d="M143.515,177.281c-21.02-0.02-81.974-12.787-91.536-13.546c0,0,11.104-21.204,11.283-35.104
			c0.179-13.898-7.604-8.79-8.316-0.179c-0.58,7.007-3.014,23.566-20.717,21.32c-15.252-1.935-5.996-38.902,23.807-41.518
			c0,0,10.633,0.061,9.979-6.18c-0.767-7.323-10.038-5.522-10.038-5.522s-20.375,1.13-32.729,18.83
			c-12.354,17.7-9.731,34.428-1.426,38.492c6.667,3.263,12.135,3.921,22.471-0.119l-4.88,8.892c0,0-43.207-3.312-41.351,20.34
			c1.209,15.402,10.062,22.253,23.76,15.919c11.862-5.485,16.195-11.117,25.309-29.275c0,0,85.117,21.015,93.672,21.015
			c8.554,0,30.25,7.777,49.496-23.765C192.298,166.881,166.681,177.302,143.515,177.281L143.515,177.281z M31.397,181.954
			c-4.334,5.538-10.675,10.419-13.476,10.955c-5.829,1.115-6.821-1.86-8.682-5.333s-1.132-6.428-0.248-8.31
			c5.705-12.152,30.012-10.541,30.012-10.541S36.463,175.485,31.397,181.954z"/>
	</g>
</g>
</svg>
