<?xml version="1.0" encoding="utf-8"?>
<!-- Generator: Adobe Illustrator 14.0.0, SVG Export Plug-In . SVG Version: 6.00 Build 43363)  -->
<!DOCTYPE svg PUBLIC "-//W3C//DTD SVG 1.1//EN" "http://www.w3.org/Graphics/SVG/1.1/DTD/svg11.dtd">
<svg version="1.1" id="Layer_1" xmlns="http://www.w3.org/2000/svg" xmlns:xlink="http://www.w3.org/1999/xlink" x="0px" y="0px"
	 width="800px" height="600px" viewBox="0 0 800 600" enable-background="new 0 0 800 600" xml:space="preserve">
<g>
	<path d="M492.72,347.994c-1.596,0.826-3.916,2.34-6.936,2.07c-0.881-0.078-3.395-1.066-3.711-3.772
		c-0.355-3.035,0.898-7.709,1.795-11.614c0.744-3.239,1.596-7.209,2.402-11.07c0.001-0.007,0.003-0.014,0.004-0.02l4.916-0.096
		c2.875-0.269,5.504-0.254,5.658-3.682c0.211-4.641-5.838-4.671-5.838-4.671l-3.009,0.042c0.54-2.659,0.962-4.784,1.181-5.877
		c0.01-0.052,0.023-0.101,0.035-0.151c2.438-9.243,2.998-16.341-5.35-12.257c-6.377,3.121-6.406,5.928-6.406,5.928l-1.494,12.395
		l-0.061,0.502l-0.005,0.044l-4.696,0.172c0,0-2.336-0.156-2.336,3.862c0,4.281,2.365,4.161,2.365,4.161l3.687-0.064l-2.729,22.637
		c0,0-0.055,0.36-0.064,0.941c0,0.012,0.001,0.026,0,0.038c-1.089,0.701-4.927,3.032-7.117,2.554
		c-1.916-0.42-3.184-1.165-3.711-3.772c-0.605-2.997,0.898-7.71,1.795-11.616c1.32-5.751,2.982-13.806,4.127-19.459
		c0.553-2.735,0.988-4.913,1.203-5.986c2.455-9.282,3.039-16.431-5.33-12.335c-6.377,3.121-6.406,5.928-6.406,5.928l-1.494,12.394
		l-3.773,31.314c0,0-0.074,0.465-0.068,1.196c-2.592,1.372-8.941,3.495-8.152-5.659c0.408-4.725,2.803-18.943,2.803-18.943
		s1.076-3.394-4.205-3.479c-0.348-0.064-0.711-0.119-1.109-0.151c-4.871-0.392-5.424,0.909-5.506,3.542
		c-0.084,2.634-2.076,17.907-2.076,17.907s0.008,9.106-9.758,8.8c-8.955-0.279-2.826-20.893-2.818-21.532l1.312-5.292
		c0,0,0.625-3.575-5.029-3.513s-5.445,1.626-5.736,2.695c-0.109,0.404-0.463,2.768-0.857,5.556c0,0.002,0,0.003-0.001,0.005
		c-1.915,0.955-4.538,1.93-6.979,2.583c-0.024,0.007-0.05,0.012-0.074,0.019c-0.013-2.643-0.37-5.168-1.168-6.575
		c-2.945-5.188-8.211-5.503-16.959,0.377c0,0-3.12-5.809-7.713-0.514c-4.594,5.295-8.084,22.519-4.23,28.224
		c3.853,5.705,11.725,7.56,20.73,0.383c4.461-3.557,7.273-9.691,8.577-15.236c0.015-0.004,0.031-0.006,0.046-0.01
		c2.638-0.656,5.127-1.714,6.845-2.585c-0.293,2.141-0.501,3.699-0.501,3.699s-2.416,16.337,9.205,18.498s15.322-5.989,15.322-5.989
		s3.848,11.756,20.178,3.081v0.001c1.396,1.548,3.674,2.827,7.383,3.151c7.557,0.66,11.233-2.119,12.79-3.912
		c1.307,1.876,3.683,3.537,7.983,3.912c7.143,0.625,12.719-2.547,14.416-4.332c0.834-0.876,0.992-2.195,0.42-3.261
		C495.763,347.823,494.085,347.288,492.72,347.994z M393.181,339.285c-1.595,9.218-7.973,12.413-10.002,9.207
		c-1.519-2.398-1.505-7.288,0.097-12.352c2.15,0.763,4.783,1.366,8.017,1.632c0.724,0.061,1.425,0.085,2.116,0.103
		C393.334,338.336,393.245,338.918,393.181,339.285z M394.188,331.906c-0.558,0.057-1.109,0.106-1.644,0.143
		c-2.842,0.191-5.206-0.291-7.087-0.987c-0.022-0.008-0.041-0.018-0.062-0.026c3.587-6.224,6.481-5.319,6.481-5.319
		C393.856,326.596,394.41,328.476,394.188,331.906z"/>
	<path d="M495.603,266.162c-1.025,0.32-2.961,1.393-5.885,4.848c-6.043,7.143-13.771,6.105-13.771,6.105s-7.469-0.51-3.951-3.232
		c6.887-5.328,13.172-14.129,13.172-14.129s9.432-14.371-6.377-14.371c-14.67,0-15.396,23.828-15.729,27.41
		c-0.018,0.182-0.096,0.34-0.232,0.461c-1.436,1.262-8.318,5.641-12.928,4.939c-5.338-0.811,1.135-8.262,1.539-8.719
		c0.012-0.016,0.02-0.027,0.033-0.043c0.4-0.566,8.871-12.684,4.895-18.18c-1.463-2.023-7.705-3.959-10.18-4.66
		c-0.467-0.133-0.676-0.668-0.426-1.086c0.756-1.266,1.193-2.742,1.193-4.328c-0.008-11.502-18.9-11.492-18.893,0.012
		c0.002,3.457,1.574,7.109,4.469,8.305c0.33,0.137,0.537,0.471,0.447,0.816c-0.229,0.889-0.518,1.82-0.881,2.672
		c-3.637,8.498-14.451,25.658-20.336,23.416c-2.252-0.857-2.096-3.354-1.736-4.551s6.412-15.604,7.904-21.016
		c0.375-1.367,0.777-4.432-2.098-5.27c-2.41-0.703-7.559,1.506-9.545,4.012c-0.727,0.918-1.02,2.162-1.83,1.318
		c-2.217-2.309-9.182-2.336-12.215-0.719c-5.713,3.047-14.674,5.848-12.812,22.512c0.017,0.145,0.04,0.272,0.058,0.412
		c-1.401,0.871-4.863,2.839-6.88,2.398c-1.916-0.42-3.185-1.166-3.711-3.773c-0.605-2.996,0.672-6.555,1.568-10.461
		c1.959-8.533,4.67-22.152,5.329-25.445c2.454-9.281,2.92-16.25-5.448-12.154c-6.379,3.121-6.287,5.748-6.287,5.748l-4.422,36.682
		c-0.515,0.18-1.001,0.375-1.414,0.617c-40.199,23.645-59.774-32.992-31.279-51.441c20.502-13.275,37.225,2.529,16.492,17.848
		c0,0-3.582,2.551-4.498,3.461s-0.666,2.096,1,2.277c1.664,0.182,6.496-0.729,8.994-2.004c2.5-1.275,10.246-5.373,12.328-12.021
		c2.082-6.646,2.748-16.574-3.914-21.4c-6.664-4.826-23.619-10.754-41.563,8.014c-31.616,33.066,1.464,88.695,42.885,66.439
		c0.2-0.107,0.418-0.205,0.637-0.303c0.205,0.562,0.473,1.133,0.839,1.691c1.278,1.947,3.672,3.697,8.107,4.086
		c7.975,0.697,11.625-2.438,13.027-4.198c4.155,7.374,13.374,2.226,15.838,0.05c0.24-0.211,1.469-1.441,1.908-0.529
		c1.629,3.375,18.625,8.342,26.684-1.195c4.775-5.648,7.969-11.98,8.982-13.77c0.582-1.027,4.719-7.793,7.664-12.6
		c0.135-0.221,0.375-0.361,0.633-0.344c2.205,0.158,5.717,2.039,4.998,4.793c-0.383,1.469-2.523,6.449-2.629,6.695
		c-0.006,0.012-0.004,0.008-0.008,0.018c-0.17,0.32-5.084,9.607-5.686,10.949c-1.256,2.814,0.719,8.742,9.162,9.639
		c7.375,0.785,14.867-3.113,16.219-4.084l0.121,0.137c0,0.119,5.992,5.744,15.812,3.828c9.818-1.916,13.531-10.656,14.729-12.932
		c0.656-1.248,0.826-2.26,0.848-2.922C496.567,266.385,496.085,266.01,495.603,266.162z M402.843,265.992
		c-7.607,15.785-17.486,13.805-9.88-2.514C398.948,250.635,410.528,250.043,402.843,265.992z M471.491,258.109
		c4.688-6.959,11.936-7.516,5.506,3.213C471.427,270.619,464.69,268.209,471.491,258.109z"/>
	<path d="M447.741,377.263c-21.186-0.019-82.625-12.888-92.264-13.653c0,0,11.193-21.373,11.374-35.383
		c0.179-14.01-7.664-8.86-8.384-0.18c-0.584,7.062-3.037,23.754-20.881,21.49c-15.373-1.95-6.043-39.212,23.996-41.848
		c0,0,10.717,0.061,10.058-6.227c-0.772-7.383-10.118-5.568-10.118-5.568s-20.537,1.139-32.99,18.98s-9.809,34.702-1.437,38.798
		c6.72,3.289,12.231,3.952,22.649-0.12l-4.918,8.962c0,0-43.551-3.34-41.68,20.501c1.219,15.526,10.143,22.431,23.949,16.046
		c11.957-5.529,16.324-11.206,25.51-29.508c0,0,85.793,21.181,94.416,21.181c8.621,0,30.49,7.839,49.889-23.954
		C496.911,366.78,471.091,377.285,447.741,377.263z M334.73,381.974c-4.369,5.582-10.76,10.501-13.583,11.042
		c-5.875,1.125-6.875-1.875-8.75-5.375s-1.141-6.479-0.25-8.375c5.75-12.25,30.25-10.625,30.25-10.625
		S339.835,375.453,334.73,381.974z"/>
</g>
</svg>
